{"title":"Aroused.2013.720p.HDTV.DD5.1.x264-EbP","uid":10944362,"size":1852769886,"categoryP":"video","categoryS":"hd___movies","magnet":"?xt=urn:btih:4dbcc719799c2788cf531ab85aefd112843925cd&amp;dn=Aroused.2013.720p.HDTV.DD5.1.x264-EbP&amp;tr=udp%3A%2F%2Ftracker.openbittorrent.com%3A80&amp;tr=udp%3A%2F%2Fopen.demonii.com%3A1337&amp;tr=udp%3A%2F%2Ftracker.coppersurfer.tk%3A6969&amp;tr=udp%3A%2F%2Fexodus.desync.com%3A6969","seeders":0,"leechers":1,"uploader":"ali1997a","files":2,"time":1409587944,"description":"SilverTorrent - Clean And Verified Torrents Download\n &lt;a href=&quot;\nhttp://i.imgur.com/ky6BGho.png&quot; rel=&quot;nofollow&quot; target=&quot;_NEW&quot;&gt;\nhttp://i.imgur.com/ky6BGho.png&lt;/a&gt;\n &lt;a href=&quot;\nhttp://i.imgur.com/sZEmQlZ.jpg&quot; rel=&quot;nofollow&quot; target=&quot;_NEW&quot;&gt;\nhttp://i.imgur.com/sZEmQlZ.jpg&lt;/a&gt;\n\nAroused.2013.720p.HDTV.DD5.1.x264-EbP\n\niMDB:http://www.imdb.com/title/tt2403815/\nFormat : Matroska\nFormat version : Version 4 / Version 2\nFile size: 1.73 GiB\nDuration : 1h 8mn\nOverall bit rate : 3 586 Kbps\nEncoded date : UTC 2014-02-16 05:08:35\nWriting application: mkvmerge v6.3.0 ('You can't\nstop me!') built on Jun 28 2013 20:09:41\nWriting library: libebml v1.3.0 + libmatroska\nv1.4.0\n\nVideo\nID : 1\nFormat : AVC\nFormat/Info: Advanced Video Codec\nFormat profile : &lt;a class=&quot;__cf_email__&quot; href=&quot;/cdn-cgi/l/email-protection&quot; data-cfemail=&quot;ace4c5cbc4ece098829d&quot;&gt;[email&amp;#160;protected]&lt;/a&gt;&lt;script cf-hash='f9e31' type=&quot;text/javascript&quot;&gt;\n/* &lt;![CDATA[ */!function(){try{var t=&quot;currentScript&quot;in document?document.currentScript:function(){for(var t=document.getElementsByTagName(&quot;script&quot;),e=t.length;e--;)if(t[e].getAttribute(&quot;cf-hash&quot;))return t[e]}();if(t&amp;&amp;t.previousSibling){var e,r,n,i,c=t.previousSibling,a=c.getAttribute(&quot;data-cfemail&quot;);if(a){for(e=&quot;&quot;,r=parseInt(a.substr(0,2),16),n=2;a.length-n;n+=2)i=parseInt(a.substr(n,2),16)^r,e+=String.fromCharCode(i);e=document.createTextNode(e),c.parentNode.replaceChild(e,c)}}}catch(u){}}();/* ]]&gt; */&lt;/script&gt;\nFormat settings, CABAC : Yes\nFormat settings, ReFrames: 9 frames\nCodec ID : V_MPEG4/ISO/AVC\nDuration : 1h 8mn\nBit rate : 3 200 Kbps\nWidth: 1 280 pixels\nHeight : 720 pixels\nDisplay aspect ratio : 16:9\nFrame rate mode: Constant\nFrame rate : 23.976 fps\nColor space: YUV\nChroma subsampling : 4:2:0\nBit depth: 8 bits\nScan type: Progressive\nBits/(Pixel*Frame) : 0.145\nStream size: 1.51 GiB (87%)\nWriting library: x264 core 140 r2377 1ca7bb9\nLanguage : English\nDefault: Yes\nForced : No\n\nAudio\nID : 2\nFormat : AC-3\nFormat/Info: Audio Coding 3\nMode extension : CM (complete main)\nFormat settings, Endianness: Big\nCodec ID : A_AC3\nDuration : 1h 8mn\nBit rate mode: Constant\nBit rate : 384 Kbps\nChannel(s) : 6 channels\nChannel positions: Front: L C R, Side: L R, LFE\nSampling rate: 48.0 KHz\nBit depth: 16 bits\nCompression mode : Lossy\nDelay relative to video: 20ms\nStream size: 189 MiB (11%)\nDefault: Yes\nForced : No\n &lt;a href=&quot;\nhttp://i.imgur.com/El6NCpC.png&quot; rel=&quot;nofollow&quot; target=&quot;_NEW&quot;&gt;\nhttp://i.imgur.com/El6NCpC.png&lt;/a&gt;\n &lt;a href=&quot;\nhttp://i.imgur.com/vPioCbO.png&quot; rel=&quot;nofollow&quot; target=&quot;_NEW&quot;&gt;\nhttp://i.imgur.com/vPioCbO.png&lt;/a&gt;\n &lt;a href=&quot;\nhttp://i.imgur.com/DVXc5tM.png&quot; rel=&quot;nofollow&quot; target=&quot;_NEW&quot;&gt;\nhttp://i.imgur.com/DVXc5tM.png&lt;/a&gt;","torrent":{"xt":"urn:btih:4dbcc719799c2788cf531ab85aefd112843925cd","amp;dn":"Aroused.2013.720p.HDTV.DD5.1.x264-EbP","amp;tr":["udp%3A%2F%2Ftracker.openbittorrent.com%3A80","udp%3A%2F%2Fopen.demonii.com%3A1337","udp%3A%2F%2Ftracker.coppersurfer.tk%3A6969","udp%3A%2F%2Fexodus.desync.com%3A6969"],"infoHash":"4dbcc719799c2788cf531ab85aefd112843925cd","infoHashBuffer":{"type":"Buffer","data":[77,188,199,25,121,156,39,136,207,83,26,184,90,239,209,18,132,57,37,205]},"announce":[],"urlList":[]}}